<svg width="129" height="68" viewBox="0 0 129 68" fill="none" xmlns="http://www.w3.org/2000/svg">
<mask id="mask0_1_68" style="mask-type:luminance" maskUnits="userSpaceOnUse" x="19" y="28" width="36" height="40">
<path d="M19 28H55V68H19V28Z" fill="white"/>
</mask>
<g mask="url(#mask0_1_68)">
<path fill-rule="evenodd" clip-rule="evenodd" d="M31.5233 28.0035C30.3449 28.0438 29.9734 28.6789 29.6218 29.3442C29.1824 30.1708 28.9387 31.1352 29.2503 32.1164C29.1425 32.3415 29.0346 32.6439 28.9467 32.9363C27.1971 33.1984 26.1664 35.5203 25.5033 37.1769C24.1092 40.4766 23.2983 47.7515 26.7736 50.816C26.9174 50.8832 27.0413 50.9437 27.1651 51.0041C27.1811 51.0713 27.1971 51.1318 27.2051 51.1822C27.2969 51.6695 28.6631 54.7441 29.3702 55.4564C29.4141 55.5001 29.4581 55.5404 29.498 55.5774C29.4421 55.8193 29.3662 56.0243 29.2663 56.1453C28.8549 56.6426 28.2716 56.6594 27.4487 57.1937C26.6258 57.7279 25.4993 58.8502 25.3036 59.1661C25.2077 59.3173 24.7443 59.8213 24.2929 60.3019C24.2929 60.3019 24.277 60.2783 24.277 60.275C24.245 60.3388 23.1185 61.1587 22.7949 61.3502C22.779 61.3603 22.763 61.367 22.747 61.3738C22.735 60.9336 22.3116 60.9302 22.3116 60.9302C22.3316 60.9672 21.5965 60.732 21.2051 60.4363C20.8176 60.1439 20.1664 60.6009 19.9707 61.283C19.775 61.9652 19.4754 64.4853 19.2397 65.7353C19 66.9853 19.004 67.9968 19.8908 67.943C20.7816 67.8859 20.2583 67.738 20.7137 67.0391C21.1691 66.3402 21.9281 65.4195 22.9228 64.7205C23.9174 64.0216 23.6578 64.0384 23.7217 63.5982C23.7297 63.5545 23.7297 63.5142 23.7257 63.4705C23.7497 63.4605 23.7696 63.4504 23.7896 63.4403C24.0453 63.3025 25.8029 62.066 25.4874 62.0055C26.7856 61.0176 28.5832 59.7474 30.3968 58.9779C33.3848 57.7044 32.4501 57.5969 32.8415 57.0626C32.9214 56.9517 33.0053 56.7031 33.0892 56.3805C33.4447 56.2494 33.7044 56.0915 33.7563 56.031C33.8921 55.8832 33.7443 54.8583 33.8322 54.1056C33.8442 54.0082 33.8362 53.8637 33.8123 53.6856C35.2144 54.3072 37.2956 55.2683 37.2956 55.2683C37.3675 55.1506 37.4354 55.0364 37.4993 54.9222C37.6671 54.9961 37.8748 55.0868 37.9387 55.1137C37.9467 55.117 37.9547 55.1204 37.9627 55.1238C38.1505 55.2716 38.2823 55.4463 38.2423 55.6278C38.2304 55.6916 38.2583 55.732 38.3262 55.7555C38.3222 55.7891 38.3222 55.8193 38.3222 55.8563C38.2823 56.5653 37.5992 57.6943 38.474 59.5996C39.257 61.3032 39.9121 63.4369 40.0439 63.8637L40.0759 64.949C39.8083 64.9154 39.7084 65.0196 39.7084 65.0196L39.5846 65.4027C39.4687 65.3825 39.3648 65.6076 39.249 65.863C39.1332 66.1218 39.1252 66.4813 39.1252 66.8946C39.1252 67.3079 38.4501 67.5666 40.3116 67.7246C42.1691 67.8825 46.723 67.8019 47.514 67.5263C48.3049 67.2508 48.3009 66.9719 47.7457 66.6762C47.1864 66.3805 45.0732 65.9101 44.6538 65.6715C44.2383 65.4363 44.0067 65.238 43.6112 64.8818C43.2517 64.5626 43.1039 64.2232 42.7523 64.4248C42.5566 63.8973 42.3089 63.232 42.3089 63.232L42.245 63.2488C42.1571 62.5532 41.5619 57.6843 41.6658 56.6627C41.7816 55.5673 42.1212 54.1157 41.7816 53.4672C41.6458 53.2152 41.5459 53.0068 41.4341 52.8187C41.3582 52.617 41.2703 52.4457 41.1664 52.3247C41.2064 52.3213 41.2423 52.3213 41.2823 52.318C40.9068 51.0277 37.6072 50.2347 36.964 49.9759C36.3169 49.7172 33.7044 47.7011 33.249 47.4423C33.0652 47.3381 32.8096 47.1365 32.502 46.9248C32.5739 46.8576 32.6138 46.7871 32.6178 46.7165C32.6378 46.283 32.3063 45.1876 32.0985 44.0922C32.1345 44.1157 32.1744 44.1392 32.2104 44.1627C32.2104 44.1627 32.2983 43.8805 32.4301 43.4907C32.7497 43.6654 33.0213 43.8234 33.0932 43.8906C33.3009 44.0754 34.3475 45.1708 34.6831 45.3254C35.0186 45.4799 37.5433 47.0391 38.506 47.6338C39.4687 48.2286 41.522 49.5088 41.8056 49.5156C42.0932 49.5256 43.5513 50.5942 43.783 50.8529C44.0146 51.115 44.0546 51.6258 44.5739 51.4947C45.0932 51.3637 45.6485 51.0613 45.8802 50.9235C46.1119 50.7824 46.7031 50.3153 46.7031 50.3153L47.1824 49.6735C47.1824 49.6735 47.1545 49.65 47.1465 49.6433C47.4381 49.5021 47.6858 49.4013 47.8415 49.3812C48.5087 49.2904 48.992 49.6769 49.6272 49.8919C50.2583 50.107 51.217 49.7071 51.217 49.7071C51.217 49.7071 53.2224 48.5445 54.1372 47.8321C55.0519 47.1231 54.8362 46.1318 54.7403 45.9302C54.6445 45.7286 54.277 44.9759 53.3222 43.8973C52.3715 42.822 50.9893 43.3059 50.9893 43.3059C50.9893 43.3059 48.3569 44.8516 47.9134 45.154C47.474 45.4564 46.9427 46.1218 47.0306 46.7703C47.1225 47.4188 47.0386 47.7481 46.9068 48.1177C46.779 48.4873 46.2676 48.7998 46.2676 48.7998C46.2636 48.7965 46.1398 48.8637 45.964 48.9578C45.6485 48.9511 45.6405 49.2266 43.9387 48.615C42.1092 47.9598 41.4221 47.6137 40.5113 46.7669C39.6005 45.9168 37.5632 43.8771 36.7483 43.5646C35.9334 43.2521 35.1664 41.8845 33.7563 41.0848C33.6964 41.0512 33.6365 41.0209 33.5766 40.9974C33.6165 40.9638 33.6565 40.9437 33.6924 40.9369C33.7124 40.9336 33.7284 40.9302 33.7443 40.9201C34.4394 41.2158 35.9534 41.7938 36.4008 41.8912C36.9481 42.0088 39.1851 42.2239 39.8881 42.7078C40.5912 43.1883 41.6618 43.5613 41.6618 43.5613C41.6618 43.5613 42.5486 44.324 42.7084 44.324C42.8642 44.3207 42.6085 44.0283 42.4368 43.8603C42.273 43.6923 42.0173 43.4336 42.0173 43.4336L43.1118 44.1728C43.1358 44.2535 43.4514 44.2636 43.3995 44.1527C43.3675 44.0787 42.8642 43.5915 42.7563 43.5075C42.6525 43.4269 42.4048 43.2118 42.4048 43.2118C42.4048 43.2118 43.1318 43.4369 43.4274 43.6856C43.723 43.9343 44.0746 43.9578 44.1185 43.8805C44.2024 43.736 43.5632 43.4369 43.4474 43.3193C43.3316 43.2017 42.6045 42.8287 42.6045 42.8287L42.5965 42.6775L43.9308 43.0035C44.2983 43.0841 44.51 43.0673 44.3981 42.8422C44.3981 42.8422 43.0559 42.449 42.8003 42.2911C42.5446 42.1332 42.4048 41.9988 42.281 41.9383C42.1571 41.8778 41.526 41.4511 41.3901 41.4511C41.2543 41.4477 40.731 41.6728 40.4514 41.6359C40.1718 41.5955 39.0373 41.0713 38.3103 40.8227C37.5832 40.5774 36.1332 39.734 35.7057 39.6399C35.4381 39.5794 35.0866 39.482 34.8229 39.3711C34.9587 39.23 35.0426 39.1157 35.0426 39.1157C35.0426 39.1157 33.996 37.4759 33.6045 36.3973C33.2969 35.5572 32.7057 34.9658 32.2623 34.7273C33.0652 34.3341 33.8282 33.242 34.1838 32.3684C34.2996 32.318 34.3116 31.6695 34.6192 31.8677C37.5073 33.736 37.4314 32.0122 34.9028 31.0445C34.743 30.984 34.9787 30.7521 35.0027 30.6043C35.1065 30.0095 35.0586 29.4013 34.6671 29.0115C33.8802 28.3529 32.5899 28.0001 31.5233 28.0035ZM24.277 60.275C24.277 60.2716 24.277 60.2716 24.273 60.2716L24.277 60.275Z" fill="#06B3D2"/>
</g>
<path d="M46.5018 35.1784C48.0406 37.4462 51.7508 36.3723 51.7386 33.2876C51.4771 31.7967 49.9869 30.7913 48.4177 31.0369C46.8424 31.2826 45.778 32.6935 46.0395 34.1844C46.1551 34.5672 46.3132 34.8985 46.5018 35.1784ZM47.0431 35.3955C47.0005 35.3383 46.9823 35.2812 47.0066 35.2584C47.0431 35.2184 47.1587 35.2584 47.2681 35.3498C47.3837 35.4412 47.4445 35.5497 47.408 35.5897C47.3776 35.6297 47.2742 35.5954 47.1647 35.5154C47.1587 35.5097 47.1526 35.504 47.1465 35.4983C47.1039 35.464 47.0674 35.4297 47.0431 35.3955ZM46.6295 34.1502C46.5991 34.1045 46.5748 34.0416 46.5565 33.9617C46.5322 33.8246 46.5565 33.7046 46.6112 33.6932C46.6599 33.6818 46.7268 33.7789 46.7572 33.9217C46.7816 34.0588 46.7572 34.1787 46.7025 34.1902C46.6903 34.1959 46.6782 34.1902 46.6599 34.1787C46.6538 34.173 46.6417 34.1616 46.6295 34.1502ZM46.6599 32.6935C46.6356 32.6478 46.6477 32.5507 46.7025 32.4479C46.7633 32.3222 46.8606 32.2365 46.9093 32.2537C46.964 32.2765 46.9519 32.3965 46.891 32.5221C46.8241 32.6478 46.7268 32.7335 46.6782 32.7164C46.6782 32.7107 46.6721 32.7107 46.6721 32.7107C46.666 32.7049 46.6599 32.6992 46.6599 32.6935ZM48.3812 35.1955C48.3751 35.1898 48.3751 35.1784 48.369 35.167C48.3021 35.0413 48.3812 34.9328 48.5454 34.9213C48.7036 34.9156 48.8921 35.007 48.9529 35.1327C49.0198 35.2584 48.9408 35.3669 48.7766 35.3783C48.6671 35.384 48.5454 35.3441 48.4603 35.2755C48.4299 35.2527 48.3994 35.2241 48.3812 35.1955ZM49.1962 36.0581C49.1902 36.0524 49.1902 36.0467 49.1841 36.041C49.178 35.9896 49.2936 35.9324 49.4395 35.921C49.5855 35.9096 49.7132 35.9439 49.7193 35.9953C49.7254 36.0467 49.6159 36.1038 49.4639 36.1152C49.3483 36.1209 49.251 36.1038 49.2084 36.0695C49.2023 36.0638 49.1962 36.0581 49.1962 36.0581ZM47.8216 33.7046C47.7608 33.6018 47.7669 33.4704 47.846 33.3733C47.9554 33.2476 48.1622 33.2362 48.3021 33.3447C48.442 33.4533 48.4664 33.6475 48.3569 33.7732C48.2474 33.8988 48.0467 33.9103 47.9068 33.8017C47.8703 33.7732 47.8399 33.7389 47.8216 33.7046ZM48.1379 32.2137C48.0771 32.1394 48.1014 32.0423 48.1987 31.9623C48.3265 31.8709 48.5333 31.8424 48.661 31.9109C48.7887 31.9795 48.7948 32.1109 48.6671 32.208C48.5393 32.3051 48.3325 32.3279 48.2048 32.2594C48.1927 32.2537 48.1805 32.248 48.1683 32.2422C48.1562 32.2308 48.1501 32.2251 48.1379 32.2137ZM49.9991 34.8471C49.9748 34.8014 49.9687 34.7328 49.9991 34.6643C50.0538 34.5215 50.2241 34.4015 50.3701 34.3958C50.5161 34.3901 50.5891 34.5043 50.5283 34.6529C50.4735 34.7957 50.3093 34.9156 50.1572 34.9156C50.1086 34.9213 50.066 34.9042 50.0356 34.8814C50.0234 34.8756 50.0113 34.8585 49.9991 34.8471ZM49.5612 33.2533C49.476 33.1277 49.476 32.962 49.5612 32.8592C49.6646 32.7449 49.847 32.7564 49.9687 32.8877C50.0903 33.0191 50.1086 33.2191 50.0113 33.3333C49.92 33.4361 49.7619 33.4361 49.6402 33.339C49.6281 33.3333 49.6159 33.3162 49.6037 33.3047C49.5855 33.2876 49.5733 33.2762 49.5612 33.2533ZM49.5733 31.5453C49.5612 31.5168 49.5551 31.4939 49.5612 31.4825C49.5855 31.4311 49.7132 31.4482 49.847 31.5111C49.9748 31.5739 50.066 31.6653 50.0417 31.711C50.0173 31.7624 49.8896 31.751 49.7558 31.6881C49.7193 31.6653 49.6828 31.6424 49.6524 31.6196C49.6159 31.591 49.5916 31.5682 49.5733 31.5453ZM51.1243 33.5332C51.0939 33.4932 51.0696 33.4361 51.0574 33.3733C51.0209 33.2305 51.0574 33.0991 51.1243 33.082C51.1973 33.0591 51.2764 33.1619 51.3068 33.299C51.3372 33.4418 51.3068 33.5675 51.2399 33.5904C51.2095 33.5961 51.1852 33.5846 51.1547 33.5675C51.1426 33.5561 51.1365 33.5447 51.1243 33.5332Z" fill="#FFCC00"/>
<path d="M70.023 28.9717C71.0449 28.9717 71.9086 29.1488 72.6263 29.4972C73.3561 29.8514 73.8975 30.337 74.2563 30.9596C74.6274 31.588 74.8159 32.3191 74.8159 33.1531C74.8159 33.9929 74.6274 34.724 74.2563 35.3467C73.8975 35.9751 73.3561 36.4606 72.6263 36.8091C71.9086 37.1632 71.0449 37.3346 70.023 37.3346H67.3468V42.2929H64.549V28.9717H70.023ZM69.6581 35.2324C71.2152 35.2324 71.9937 34.5413 71.9937 33.1531C71.9937 31.7536 71.2152 31.051 69.6581 31.051H67.3468V35.2324H69.6581Z" fill="black"/>
<path d="M78.5422 31.0281C78.0678 31.0281 77.6785 30.8911 77.3744 30.6169C77.0642 30.3427 76.9121 29.9885 76.9121 29.5429C76.9121 29.1202 77.0642 28.7661 77.3744 28.4919C77.6785 28.2177 78.0678 28.0806 78.5422 28.0806C78.8645 28.0806 79.1565 28.1434 79.418 28.2634C79.6735 28.389 79.8681 28.5604 80.0019 28.7889C80.1479 29.0174 80.2209 29.2687 80.2209 29.5429C80.2209 29.8343 80.1479 30.0913 80.0019 30.3198C79.8681 30.5483 79.6735 30.7254 79.418 30.8454C79.1565 30.971 78.8645 31.0281 78.5422 31.0281ZM77.2041 42.2929V32.2392H79.9046V42.2929H77.2041Z" fill="black"/>
<path d="M87.6911 42.4757C86.651 42.4757 85.7326 42.2815 84.9419 41.8817C84.1451 41.4704 83.5187 40.8763 83.0686 40.0994C82.6124 39.3111 82.3873 38.3628 82.3873 37.2661C82.3873 36.1693 82.6124 35.2325 83.0686 34.4556C83.5187 33.6673 84.1391 33.0732 84.9176 32.6733C85.7083 32.262 86.6206 32.0564 87.6425 32.0564C89.8929 32.0564 91.3405 32.8276 91.9731 34.3642L90.1241 35.598H89.9294C89.6983 35.1296 89.4063 34.7755 89.0536 34.547C88.713 34.3071 88.2385 34.1814 87.6425 34.1814C86.8639 34.1814 86.2557 34.4441 85.8178 34.9583C85.3798 35.461 85.1609 36.2321 85.1609 37.2661C85.1609 38.3057 85.3798 39.0826 85.8178 39.5967C86.2557 40.0994 86.8761 40.3507 87.6911 40.3507C88.2568 40.3507 88.7434 40.2079 89.1509 39.9166C89.5523 39.6138 89.8443 39.1854 90.0267 38.637L90.2214 38.6142L92.1434 39.5967C91.8636 40.4536 91.3648 41.1448 90.635 41.676C89.9051 42.213 88.9198 42.4757 87.6911 42.4757Z" fill="black"/>
<path d="M94.0106 42.2929V28.1948H96.7111V36.0322H96.9788L100.069 32.2392H102.793V32.4448L99.1441 36.8548L103.207 42.0644V42.2929H100.361L96.9788 38.0429H96.7111V42.2929H94.0106Z" fill="black"/>
<path d="M107.678 42.4757C106.705 42.4757 105.963 42.2358 105.464 41.7445C104.959 41.259 104.71 40.5221 104.71 39.5281V28.1948H107.386V39.4139C107.386 40.0423 107.66 40.3507 108.213 40.3507C108.359 40.3507 108.517 40.3222 108.7 40.2593L108.846 40.305L109.089 42.2472C108.925 42.3215 108.724 42.3729 108.481 42.4072C108.238 42.4529 107.97 42.4757 107.678 42.4757Z" fill="black"/>
<path d="M119.965 37.8373H113.079C113.159 38.7056 113.426 39.3454 113.882 39.7567C114.332 40.1565 114.953 40.3507 115.731 40.3507C116.346 40.3507 116.838 40.2479 117.215 40.0308C117.605 39.8023 117.909 39.4767 118.14 39.0483H118.359L120.135 40.1222C119.776 40.8249 119.247 41.3961 118.554 41.836C117.854 42.2644 116.911 42.4757 115.731 42.4757C114.624 42.4757 113.669 42.2872 112.861 41.9045C112.045 41.5103 111.425 40.922 110.987 40.1451C110.549 39.3568 110.33 38.3971 110.33 37.2661C110.33 36.1236 110.555 35.1639 111.011 34.387C111.48 33.5987 112.106 33.0103 112.885 32.6276C113.676 32.2506 114.564 32.0564 115.537 32.0564C117.045 32.0564 118.201 32.4391 119.016 33.1989C119.825 33.9472 120.232 35.0439 120.232 36.4892C120.232 37.0261 120.208 37.4374 120.159 37.723L119.965 37.8373ZM117.653 36.215C117.617 35.4381 117.422 34.8783 117.069 34.5241C116.729 34.1757 116.218 33.9986 115.537 33.9986C114.174 33.9986 113.371 34.7412 113.128 36.215H117.653Z" fill="black"/>
<path d="M66.4985 50.9315C67.5203 50.9315 68.384 51.1086 69.1017 51.457C69.8316 51.8112 70.3729 52.2967 70.7318 52.9194C71.1028 53.5478 71.2913 54.2789 71.2913 55.1129C71.2913 55.9527 71.1028 56.6838 70.7318 57.3065C70.3729 57.9348 69.8316 58.4204 69.1017 58.7689C68.384 59.123 67.5203 59.2944 66.4985 59.2944H63.8222V64.2527H61.0244V50.9315H66.4985ZM66.1335 57.1922C67.6906 57.1922 68.4691 56.501 68.4691 55.1129C68.4691 53.7134 67.6906 53.0108 66.1335 53.0108H63.8222V57.1922H66.1335Z" fill="black"/>
<path d="M77.0282 64.4355C75.8239 64.4355 74.942 64.1327 74.3763 63.5215C73.8046 62.8989 73.5248 62.0135 73.5248 60.871V54.1989H76.201V60.5511C76.201 61.1623 76.3348 61.6136 76.6146 61.8992C76.9065 62.1734 77.3445 62.3105 77.9284 62.3105C78.6704 62.3105 79.2482 62.082 79.6558 61.625C80.0754 61.168 80.2883 60.4483 80.2883 59.4543V54.1989H82.9889V64.2527H80.3856V62.7675L80.191 62.7218C79.8504 63.3045 79.4246 63.7386 78.9259 64.0242C78.4393 64.2984 77.8067 64.4355 77.0282 64.4355Z" fill="black"/>
<path d="M86.0513 64.2527V54.1989H88.6788V55.6842L88.8735 55.7299C89.1289 55.17 89.4695 54.7588 89.8953 54.496C90.315 54.2389 90.8259 54.1075 91.428 54.1075C92.0424 54.1075 92.5046 54.2104 92.8148 54.4046L92.3526 56.5753L92.1579 56.621C91.9755 56.5467 91.8052 56.4953 91.647 56.461C91.4828 56.4325 91.2882 56.4153 91.0631 56.4153C90.315 56.4153 89.7372 56.6667 89.3357 57.1694C88.9465 57.6606 88.7518 58.4489 88.7518 59.5457V64.2527H86.0513Z" fill="black"/>
<path d="M97.9231 64.4355C97.1932 64.4355 96.5181 64.3555 95.9038 64.207C95.3016 64.0414 94.7846 63.8186 94.3467 63.5444C93.921 63.2588 93.6047 62.9274 93.3979 62.5619L94.882 61.0538H95.1009C95.4537 61.4994 95.8795 61.8307 96.3661 62.0592C96.8526 62.2877 97.3757 62.4019 97.9475 62.4019C98.4645 62.4019 98.8537 62.3219 99.1153 62.1506C99.389 61.9678 99.5289 61.7107 99.5289 61.3737C99.5289 61.1338 99.4315 60.9281 99.2369 60.7568C99.0423 60.574 98.7321 60.4311 98.3124 60.3226L96.9013 60.0027C95.8308 59.7742 95.0523 59.4201 94.5657 58.9288C94.0791 58.4432 93.8358 57.8206 93.8358 57.0551C93.8358 56.4325 94.0061 55.8898 94.3467 55.4328C94.6873 54.9758 95.1618 54.6274 95.7821 54.3818C96.3965 54.1418 97.1203 54.0162 97.9475 54.0162C98.9024 54.0162 99.6992 54.1475 100.332 54.4046C100.964 54.6674 101.457 55.0158 101.816 55.4557L100.38 56.8952H100.186C99.8938 56.5924 99.5593 56.3697 99.1882 56.2326C98.8111 56.084 98.3975 56.0041 97.9475 56.0041C96.877 56.0041 96.3417 56.3125 96.3417 56.918C96.3417 57.1808 96.439 57.3922 96.6337 57.5578C96.8405 57.7292 97.1932 57.8663 97.6798 57.9691L99.0179 58.2433C100.101 58.4604 100.891 58.8088 101.378 59.2944C101.877 59.7685 102.132 60.414 102.132 61.2366C102.132 61.8764 101.962 62.4419 101.621 62.9274C101.293 63.4187 100.818 63.79 100.186 64.0471C99.5532 64.3041 98.799 64.4355 97.9231 64.4355Z" fill="black"/>
<path d="M107.669 64.4355C106.465 64.4355 105.583 64.1327 105.017 63.5215C104.445 62.8989 104.166 62.0135 104.166 60.871V54.1989H106.842V60.5511C106.842 61.1623 106.976 61.6136 107.255 61.8992C107.547 62.1734 107.985 62.3105 108.569 62.3105C109.311 62.3105 109.889 62.082 110.297 61.625C110.716 61.168 110.929 60.4483 110.929 59.4543V54.1989H113.63V64.2527H111.026V62.7675L110.832 62.7218C110.491 63.3045 110.065 63.7386 109.567 64.0242C109.08 64.2984 108.448 64.4355 107.669 64.4355Z" fill="black"/>
<path d="M118.03 52.9879C117.556 52.9879 117.167 52.8508 116.862 52.5766C116.552 52.3025 116.4 51.9483 116.4 51.5027C116.4 51.08 116.552 50.7258 116.862 50.4516C117.167 50.1775 117.556 50.0404 118.03 50.0404C118.353 50.0404 118.645 50.1032 118.906 50.2232C119.162 50.3488 119.356 50.5202 119.49 50.7487C119.636 50.9772 119.709 51.2285 119.709 51.5027C119.709 51.7941 119.636 52.0511 119.49 52.2796C119.356 52.5081 119.162 52.6852 118.906 52.8051C118.645 52.9308 118.353 52.9879 118.03 52.9879ZM116.692 64.2527V54.199H119.393V64.2527H116.692Z" fill="black"/>
<path d="M128.319 61.8535L129 63.7272C128.708 63.9557 128.343 64.1328 127.905 64.2527C127.467 64.3727 126.968 64.4355 126.421 64.4355C125.253 64.4355 124.365 64.1499 123.769 63.5672C123.167 62.9732 122.869 62.1049 122.869 60.9624V56.1869H121.239V54.199H122.869V52.2339L125.57 51.8226V54.199H128.611V56.1869H125.57V60.7796C125.57 61.2823 125.673 61.6479 125.886 61.8764C126.111 62.1049 126.433 62.2191 126.859 62.2191C127.327 62.2191 127.741 62.0992 128.1 61.8535H128.319Z" fill="black"/>
</svg>
