<svg width="222" height="392" viewBox="0 0 222 392" fill="none" xmlns="http://www.w3.org/2000/svg">
<g filter="url(#filter0_d_1_34)">
<mask id="mask0_1_34" style="mask-type:luminance" maskUnits="userSpaceOnUse" x="4" y="0" width="214" height="384">
<path d="M4 0H217.333V383.833H4V0Z" fill="white"/>
</mask>
<g mask="url(#mask0_1_34)">
<mask id="mask1_1_34" style="mask-type:luminance" maskUnits="userSpaceOnUse" x="4" y="0" width="214" height="384">
<path d="M110.146 0.671835C81.8073 0.84371 54.7083 12.3229 34.8646 32.5468C14.75 52.4583 3.66147 79.7239 4.15626 108.016C3.95834 136.016 15.0208 162.927 34.8646 182.687C49.5208 197.323 67.9844 207.562 88.1615 212.229C89.1615 223.635 94.1771 280.682 103.193 383.365H117.193C126.854 280.542 132.224 223.422 133.297 211.995C153.24 207.776 171.427 197.547 185.38 182.687C206 163.365 217.563 136.271 217.255 108.016C217.88 79.4635 206.281 52.0104 185.38 32.5468C165.891 11.8385 138.589 0.270794 110.146 0.671835ZM109.026 39.5052C102.958 40.276 96.974 41.6041 91.1511 43.4687C88.2083 44.3125 85.5052 45.6145 82.7031 46.6927C79.9688 47.9323 77.3177 49.3489 74.7708 50.9375C69.6615 54.0364 65.0781 57.927 61.1875 62.4635C53.4792 71.7708 48.1875 82.8333 45.7865 94.6666C44.5833 100.604 43.875 106.625 43.6875 112.682C43.2083 118.896 43.2083 125.135 43.6875 131.349C40.8281 119.104 40.4219 106.417 42.474 94.0156C44.2448 81.302 49.5104 69.3229 57.6875 59.4323C66.3021 49.7343 77.7188 42.9479 90.3594 40.0156C96.474 38.4843 102.724 37.5416 109.026 37.2187C112.151 37.2187 115.281 37.2187 118.359 37.2187C121.443 37.2187 124.568 37.6823 127.693 37.9635C124.568 38.0104 121.49 38.3854 118.359 38.4739C115.281 38.8489 112.198 39.0833 109.026 39.5052Z" fill="white"/>
</mask>
<g mask="url(#mask1_1_34)">
<path d="M3.66147 0.270752V383.365H217.88V0.270752H3.66147Z" fill="url(#paint0_linear_1_34)"/>
</g>
</g>
<mask id="mask2_1_34" style="mask-type:luminance" maskUnits="userSpaceOnUse" x="27" y="25" width="167" height="167">
<path d="M27.6511 25.6562H193.651V191.656H27.6511V25.6562Z" fill="white"/>
</mask>
<g mask="url(#mask2_1_34)">
<path d="M175.333 105.708C175.396 98.8437 177.99 93.3021 181.125 93.3333C184.26 93.3646 186.745 98.9531 186.682 105.823C186.615 112.687 184.021 118.229 180.885 118.198C177.75 118.167 175.266 112.578 175.333 105.708ZM174.833 152.182C178.698 146.51 182.448 142.323 183.203 142.839C183.958 143.354 181.437 148.375 177.568 154.047C173.703 159.724 169.953 163.906 169.198 163.391C168.443 162.875 170.964 157.859 174.833 152.182ZM142.714 139.714C139.229 135.667 140.625 128.76 145.828 124.276C151.036 119.797 158.078 119.443 161.557 123.49C165.042 127.536 163.646 134.448 158.443 138.927C153.24 143.406 146.198 143.76 142.714 139.714ZM54.3698 154.354C51.6771 155.953 46.651 152.458 43.151 146.552C39.651 140.646 38.9948 134.562 41.6927 132.964C44.3906 131.365 49.4115 134.859 52.9115 140.766C56.4167 146.672 57.0677 152.755 54.3698 154.354ZM143.026 64.1458C147.073 60.6666 153.984 62.0625 158.464 67.2656C162.948 72.4687 163.297 79.5104 159.255 82.9948C155.208 86.4739 148.297 85.0833 143.818 79.875C139.339 74.6719 138.984 67.6302 143.026 64.1458ZM123.833 34.3073C124.552 32.2552 130.385 32.4323 136.87 34.6979C143.354 36.9635 148.026 40.4635 147.307 42.5156C146.589 44.5677 140.755 44.3906 134.271 42.125C127.792 39.8594 123.115 36.3594 123.833 34.3073ZM130.99 162.312C137.536 160.234 143.698 161.255 144.76 164.589C145.818 167.922 141.37 172.312 134.823 174.391C128.281 176.469 122.115 175.448 121.057 172.115C120 168.781 124.448 164.391 130.99 162.312ZM109.745 89.4531C116.49 88.1719 122.995 92.6041 124.276 99.3541C125.552 106.099 121.12 112.604 114.375 113.885C107.625 115.161 101.12 110.729 99.8437 103.984C98.5625 97.2344 102.995 90.7291 109.745 89.4531ZM83.2292 55.2031C82.2344 49.9583 86.901 44.6719 93.6458 43.3906C100.391 42.1146 106.667 45.3281 107.661 50.5729C108.656 55.8177 103.99 61.1094 97.2448 62.3854C90.5 63.6614 84.224 60.4479 83.2292 55.2031ZM90.8229 156.281C83.6094 154.656 78.7083 149.12 79.8802 143.917C81.0469 138.708 87.8437 135.797 95.0625 137.422C102.276 139.042 107.177 144.578 106.005 149.786C104.833 154.995 98.0365 157.901 90.8229 156.281ZM74.6562 179.573C74.9219 178.698 80.4635 179.63 87.026 181.656C93.5833 183.677 98.6875 186.026 98.4167 186.901C98.1458 187.776 92.6094 186.844 86.0469 184.823C79.4844 182.797 74.3854 180.448 74.6562 179.573ZM49.8229 58.7187C54.2865 53.5052 58.9271 50.151 60.1875 51.2291C61.4427 52.3073 58.8437 57.4062 54.375 62.6198C49.9062 67.8385 45.2656 71.1927 44.0104 70.1146C42.75 69.0364 45.3542 63.9375 49.8229 58.7187ZM58.7604 87.5C64.099 87.3646 68.5677 92.8177 68.7448 99.6823C68.9219 106.542 64.7396 112.219 59.4062 112.359C54.0677 112.5 49.599 107.047 49.4219 100.182C49.2448 93.3177 53.4271 87.6406 58.7604 87.5ZM179.766 62.6927C173.818 53.7604 166.292 46.1562 157.385 40.0833C148.479 34.0156 138.646 29.7916 128.156 27.526C117.297 25.1771 106.214 25.0416 95.2083 27.1302C84.2031 29.2135 73.9323 33.3906 64.6823 39.5521C55.7552 45.4948 48.1458 53.026 42.0781 61.9323C36.0104 70.8385 31.7865 80.6719 29.5156 91.1562C27.1719 102.016 27.0365 113.104 29.125 124.109C31.2083 135.115 35.3854 145.385 41.5417 154.63C47.4896 163.562 55.0208 171.167 63.9271 177.234C72.8333 183.302 82.6667 187.531 93.151 189.797C104.01 192.146 115.099 192.276 126.104 190.193C137.109 188.109 147.375 183.927 156.625 177.771C165.557 171.823 173.161 164.297 179.229 155.391C185.297 146.484 189.526 136.651 191.792 126.167C194.141 115.307 194.271 104.219 192.187 93.2135C190.104 82.2083 185.922 71.9375 179.766 62.6927Z" fill="#CAFF00"/>
</g>
</g>
<defs>
<filter id="filter0_d_1_34" x="0.140381" y="0.661743" width="221.139" height="390.703" filterUnits="userSpaceOnUse" color-interpolation-filters="sRGB">
<feFlood flood-opacity="0" result="BackgroundImageFix"/>
<feColorMatrix in="SourceAlpha" type="matrix" values="0 0 0 0 0 0 0 0 0 0 0 0 0 0 0 0 0 0 127 0" result="hardAlpha"/>
<feOffset dy="4"/>
<feGaussianBlur stdDeviation="2"/>
<feComposite in2="hardAlpha" operator="out"/>
<feColorMatrix type="matrix" values="0 0 0 0 0 0 0 0 0 0 0 0 0 0 0 0 0 0 0.25 0"/>
<feBlend mode="normal" in2="BackgroundImageFix" result="effect1_dropShadow_1_34"/>
<feBlend mode="normal" in="SourceGraphic" in2="effect1_dropShadow_1_34" result="shape"/>
</filter>
<linearGradient id="paint0_linear_1_34" x1="110.706" y1="0.272409" x2="110.706" y2="383.367" gradientUnits="userSpaceOnUse">
<stop stop-color="#2CECFF"/>
<stop offset="0.00390625" stop-color="#2DEBFF"/>
<stop offset="0.0078125" stop-color="#2EEBFF"/>
<stop offset="0.0117188" stop-color="#2EEBFF"/>
<stop offset="0.015625" stop-color="#2FEAFF"/>
<stop offset="0.0195312" stop-color="#30EAFF"/>
<stop offset="0.0234375" stop-color="#31E9FF"/>
<stop offset="0.0273438" stop-color="#32E9FF"/>
<stop offset="0.03125" stop-color="#32E8FF"/>
<stop offset="0.0351562" stop-color="#33E8FF"/>
<stop offset="0.0390625" stop-color="#34E7FF"/>
<stop offset="0.0429688" stop-color="#35E7FF"/>
<stop offset="0.046875" stop-color="#36E6FF"/>
<stop offset="0.0507813" stop-color="#36E6FF"/>
<stop offset="0.0546875" stop-color="#37E5FF"/>
<stop offset="0.0585938" stop-color="#38E5FF"/>
<stop offset="0.0625" stop-color="#39E5FF"/>
<stop offset="0.0664062" stop-color="#3AE4FF"/>
<stop offset="0.0703125" stop-color="#3AE4FF"/>
<stop offset="0.0742188" stop-color="#3BE3FF"/>
<stop offset="0.078125" stop-color="#3CE3FF"/>
<stop offset="0.0820313" stop-color="#3DE2FF"/>
<stop offset="0.0859375" stop-color="#3EE2FF"/>
<stop offset="0.0898438" stop-color="#3EE1FF"/>
<stop offset="0.09375" stop-color="#3FE1FF"/>
<stop offset="0.0976563" stop-color="#40E0FF"/>
<stop offset="0.101562" stop-color="#41E0FF"/>
<stop offset="0.105469" stop-color="#42DFFF"/>
<stop offset="0.109375" stop-color="#42DFFF"/>
<stop offset="0.113281" stop-color="#43DFFF"/>
<stop offset="0.117188" stop-color="#44DEFF"/>
<stop offset="0.121094" stop-color="#45DEFF"/>
<stop offset="0.125" stop-color="#46DDFF"/>
<stop offset="0.128906" stop-color="#46DDFF"/>
<stop offset="0.132812" stop-color="#47DCFF"/>
<stop offset="0.136719" stop-color="#48DCFF"/>
<stop offset="0.140625" stop-color="#49DBFF"/>
<stop offset="0.144531" stop-color="#4ADBFF"/>
<stop offset="0.148438" stop-color="#4ADAFF"/>
<stop offset="0.152344" stop-color="#4BDAFF"/>
<stop offset="0.15625" stop-color="#4CD9FF"/>
<stop offset="0.160156" stop-color="#4DD9FF"/>
<stop offset="0.164062" stop-color="#4ED8FF"/>
<stop offset="0.167969" stop-color="#4ED8FF"/>
<stop offset="0.171875" stop-color="#4FD8FF"/>
<stop offset="0.175781" stop-color="#50D7FF"/>
<stop offset="0.179687" stop-color="#51D7FF"/>
<stop offset="0.183594" stop-color="#52D6FF"/>
<stop offset="0.1875" stop-color="#52D6FF"/>
<stop offset="0.191406" stop-color="#53D5FF"/>
<stop offset="0.195312" stop-color="#54D5FF"/>
<stop offset="0.199219" stop-color="#55D4FF"/>
<stop offset="0.203125" stop-color="#56D4FF"/>
<stop offset="0.207031" stop-color="#56D3FF"/>
<stop offset="0.210938" stop-color="#57D3FF"/>
<stop offset="0.214844" stop-color="#58D2FF"/>
<stop offset="0.21875" stop-color="#59D2FF"/>
<stop offset="0.222656" stop-color="#5AD2FF"/>
<stop offset="0.226562" stop-color="#5AD1FF"/>
<stop offset="0.230469" stop-color="#5BD1FF"/>
<stop offset="0.234375" stop-color="#5CD0FF"/>
<stop offset="0.238281" stop-color="#5DD0FF"/>
<stop offset="0.242188" stop-color="#5ECFFF"/>
<stop offset="0.246094" stop-color="#5ECFFF"/>
<stop offset="0.25" stop-color="#5FCEFF"/>
<stop offset="0.253906" stop-color="#60CEFF"/>
<stop offset="0.257813" stop-color="#61CDFF"/>
<stop offset="0.261719" stop-color="#62CDFF"/>
<stop offset="0.265625" stop-color="#62CCFF"/>
<stop offset="0.269531" stop-color="#63CCFF"/>
<stop offset="0.273438" stop-color="#64CBFF"/>
<stop offset="0.277344" stop-color="#65CBFF"/>
<stop offset="0.28125" stop-color="#66CBFF"/>
<stop offset="0.285156" stop-color="#66CAFF"/>
<stop offset="0.289062" stop-color="#67CAFF"/>
<stop offset="0.292969" stop-color="#68C9FF"/>
<stop offset="0.296875" stop-color="#69C9FF"/>
<stop offset="0.300781" stop-color="#6AC8FF"/>
<stop offset="0.304688" stop-color="#6AC8FF"/>
<stop offset="0.308594" stop-color="#6BC7FF"/>
<stop offset="0.3125" stop-color="#6CC7FF"/>
<stop offset="0.316406" stop-color="#6DC6FF"/>
<stop offset="0.320312" stop-color="#6EC6FF"/>
<stop offset="0.324219" stop-color="#6EC5FF"/>
<stop offset="0.328125" stop-color="#6FC5FF"/>
<stop offset="0.332031" stop-color="#70C4FF"/>
<stop offset="0.335938" stop-color="#71C4FF"/>
<stop offset="0.339844" stop-color="#72C4FF"/>
<stop offset="0.34375" stop-color="#72C3FF"/>
<stop offset="0.347656" stop-color="#73C3FF"/>
<stop offset="0.351563" stop-color="#74C2FF"/>
<stop offset="0.355469" stop-color="#75C2FF"/>
<stop offset="0.359375" stop-color="#76C1FF"/>
<stop offset="0.363281" stop-color="#76C1FF"/>
<stop offset="0.367188" stop-color="#77C0FF"/>
<stop offset="0.371094" stop-color="#78C0FF"/>
<stop offset="0.375" stop-color="#79BFFF"/>
<stop offset="0.378906" stop-color="#7ABFFF"/>
<stop offset="0.382813" stop-color="#7ABEFF"/>
<stop offset="0.386719" stop-color="#7BBEFF"/>
<stop offset="0.390625" stop-color="#7CBEFF"/>
<stop offset="0.394531" stop-color="#7DBDFF"/>
<stop offset="0.398438" stop-color="#7EBDFF"/>
<stop offset="0.402344" stop-color="#7EBCFF"/>
<stop offset="0.40625" stop-color="#7FBCFF"/>
<stop offset="0.410156" stop-color="#80BBFF"/>
<stop offset="0.414063" stop-color="#81BBFF"/>
<stop offset="0.417969" stop-color="#82BAFF"/>
<stop offset="0.421875" stop-color="#82BAFF"/>
<stop offset="0.425781" stop-color="#83B9FF"/>
<stop offset="0.429688" stop-color="#84B9FF"/>
<stop offset="0.433594" stop-color="#85B8FF"/>
<stop offset="0.4375" stop-color="#86B8FF"/>
<stop offset="0.441406" stop-color="#86B7FF"/>
<stop offset="0.445313" stop-color="#87B7FF"/>
<stop offset="0.449219" stop-color="#88B7FF"/>
<stop offset="0.453125" stop-color="#89B6FF"/>
<stop offset="0.457031" stop-color="#8AB6FF"/>
<stop offset="0.460938" stop-color="#8AB5FF"/>
<stop offset="0.464844" stop-color="#8BB5FF"/>
<stop offset="0.46875" stop-color="#8CB4FF"/>
<stop offset="0.472656" stop-color="#8DB4FF"/>
<stop offset="0.476563" stop-color="#8EB3FF"/>
<stop offset="0.480469" stop-color="#8EB3FF"/>
<stop offset="0.484375" stop-color="#8FB2FF"/>
<stop offset="0.488281" stop-color="#90B2FF"/>
<stop offset="0.492188" stop-color="#91B1FF"/>
<stop offset="0.496094" stop-color="#92B1FF"/>
<stop offset="0.5" stop-color="#92B1FF"/>
<stop offset="0.503906" stop-color="#93B0FF"/>
<stop offset="0.507812" stop-color="#94B0FF"/>
<stop offset="0.511719" stop-color="#95AFFF"/>
<stop offset="0.515625" stop-color="#96AFFF"/>
<stop offset="0.519531" stop-color="#96AEFF"/>
<stop offset="0.523438" stop-color="#97AEFF"/>
<stop offset="0.527344" stop-color="#98ADFF"/>
<stop offset="0.53125" stop-color="#99ADFF"/>
<stop offset="0.535156" stop-color="#9AACFF"/>
<stop offset="0.539062" stop-color="#9AACFF"/>
<stop offset="0.542969" stop-color="#9BABFF"/>
<stop offset="0.546875" stop-color="#9CABFF"/>
<stop offset="0.550781" stop-color="#9DAAFF"/>
<stop offset="0.554688" stop-color="#9EAAFF"/>
<stop offset="0.558594" stop-color="#9EAAFF"/>
<stop offset="0.5625" stop-color="#9FA9FF"/>
<stop offset="0.566406" stop-color="#A0A9FF"/>
<stop offset="0.570313" stop-color="#A1A8FF"/>
<stop offset="0.574219" stop-color="#A2A8FF"/>
<stop offset="0.578125" stop-color="#A2A7FF"/>
<stop offset="0.582031" stop-color="#A3A7FF"/>
<stop offset="0.585938" stop-color="#A4A6FF"/>
<stop offset="0.589844" stop-color="#A5A6FF"/>
<stop offset="0.59375" stop-color="#A6A5FF"/>
<stop offset="0.597656" stop-color="#A6A5FF"/>
<stop offset="0.601563" stop-color="#A7A4FF"/>
<stop offset="0.605469" stop-color="#A8A4FF"/>
<stop offset="0.609375" stop-color="#A9A4FF"/>
<stop offset="0.613281" stop-color="#AAA3FF"/>
<stop offset="0.617188" stop-color="#AAA3FF"/>
<stop offset="0.621094" stop-color="#ABA2FF"/>
<stop offset="0.625" stop-color="#ACA2FF"/>
<stop offset="0.628906" stop-color="#ADA1FF"/>
<stop offset="0.632813" stop-color="#AEA1FF"/>
<stop offset="0.636719" stop-color="#AEA0FF"/>
<stop offset="0.640625" stop-color="#AFA0FF"/>
<stop offset="0.644531" stop-color="#B09FFF"/>
<stop offset="0.648438" stop-color="#B19FFF"/>
<stop offset="0.652344" stop-color="#B29EFF"/>
<stop offset="0.65625" stop-color="#B29EFF"/>
<stop offset="0.660156" stop-color="#B39DFF"/>
<stop offset="0.664063" stop-color="#B49DFF"/>
<stop offset="0.667969" stop-color="#B59DFF"/>
<stop offset="0.671875" stop-color="#B69CFF"/>
<stop offset="0.675781" stop-color="#B69CFF"/>
<stop offset="0.679688" stop-color="#B79BFF"/>
<stop offset="0.683594" stop-color="#B89BFF"/>
<stop offset="0.6875" stop-color="#B99AFF"/>
<stop offset="0.691406" stop-color="#BA9AFF"/>
<stop offset="0.695312" stop-color="#BA99FF"/>
<stop offset="0.699219" stop-color="#BB99FF"/>
<stop offset="0.703125" stop-color="#BC98FF"/>
<stop offset="0.707031" stop-color="#BD98FF"/>
<stop offset="0.710938" stop-color="#BE97FF"/>
<stop offset="0.714844" stop-color="#BE97FF"/>
<stop offset="0.71875" stop-color="#BF96FF"/>
<stop offset="0.722656" stop-color="#C096FF"/>
<stop offset="0.726563" stop-color="#C196FF"/>
<stop offset="0.730469" stop-color="#C295FF"/>
<stop offset="0.734375" stop-color="#C295FF"/>
<stop offset="0.738281" stop-color="#C394FF"/>
<stop offset="0.742188" stop-color="#C494FF"/>
<stop offset="0.746094" stop-color="#C593FF"/>
<stop offset="0.75" stop-color="#C693FF"/>
<stop offset="0.753906" stop-color="#C692FF"/>
<stop offset="0.757813" stop-color="#C792FF"/>
<stop offset="0.761719" stop-color="#C891FF"/>
<stop offset="0.765625" stop-color="#C991FF"/>
<stop offset="0.769531" stop-color="#CA90FF"/>
<stop offset="0.773438" stop-color="#CA90FF"/>
<stop offset="0.777344" stop-color="#CB90FF"/>
<stop offset="0.78125" stop-color="#CC8FFF"/>
<stop offset="0.785156" stop-color="#CD8FFF"/>
<stop offset="0.789062" stop-color="#CE8EFF"/>
<stop offset="0.792969" stop-color="#CE8EFF"/>
<stop offset="0.796875" stop-color="#CF8DFF"/>
<stop offset="0.800781" stop-color="#D08DFF"/>
<stop offset="0.804688" stop-color="#D18CFF"/>
<stop offset="0.808594" stop-color="#D28CFF"/>
<stop offset="0.8125" stop-color="#D28BFF"/>
<stop offset="0.816406" stop-color="#D38BFF"/>
<stop offset="0.820312" stop-color="#D48AFF"/>
<stop offset="0.824219" stop-color="#D58AFF"/>
<stop offset="0.828125" stop-color="#D689FF"/>
<stop offset="0.832031" stop-color="#D689FF"/>
<stop offset="0.835938" stop-color="#D789FF"/>
<stop offset="0.839844" stop-color="#D888FF"/>
<stop offset="0.84375" stop-color="#D988FF"/>
<stop offset="0.847656" stop-color="#DA87FF"/>
<stop offset="0.851562" stop-color="#DA87FF"/>
<stop offset="0.855469" stop-color="#DB86FF"/>
<stop offset="0.859375" stop-color="#DC86FF"/>
<stop offset="0.863281" stop-color="#DD85FF"/>
<stop offset="0.867188" stop-color="#DE85FF"/>
<stop offset="0.871094" stop-color="#DE84FF"/>
<stop offset="0.875" stop-color="#DF84FF"/>
<stop offset="0.878906" stop-color="#E083FF"/>
<stop offset="0.882813" stop-color="#E183FF"/>
<stop offset="0.886719" stop-color="#E283FF"/>
<stop offset="0.890625" stop-color="#E282FF"/>
<stop offset="0.894531" stop-color="#E382FF"/>
<stop offset="0.898438" stop-color="#E481FF"/>
<stop offset="0.902344" stop-color="#E581FF"/>
<stop offset="0.90625" stop-color="#E680FF"/>
<stop offset="0.910156" stop-color="#E680FF"/>
<stop offset="0.914063" stop-color="#E77FFF"/>
<stop offset="0.917969" stop-color="#E87FFF"/>
<stop offset="0.921875" stop-color="#E97EFF"/>
<stop offset="0.925781" stop-color="#EA7EFF"/>
<stop offset="0.929688" stop-color="#EA7DFF"/>
<stop offset="0.933594" stop-color="#EB7DFF"/>
<stop offset="0.9375" stop-color="#EC7CFF"/>
<stop offset="0.941406" stop-color="#ED7CFF"/>
<stop offset="0.945313" stop-color="#EE7CFF"/>
<stop offset="0.949219" stop-color="#EE7BFF"/>
<stop offset="0.953125" stop-color="#EF7BFF"/>
<stop offset="0.957031" stop-color="#F07AFF"/>
<stop offset="0.960938" stop-color="#F17AFF"/>
<stop offset="0.964844" stop-color="#F279FF"/>
<stop offset="0.96875" stop-color="#F279FF"/>
<stop offset="0.972656" stop-color="#F378FF"/>
<stop offset="0.976563" stop-color="#F478FF"/>
<stop offset="0.980469" stop-color="#F577FF"/>
<stop offset="0.984375" stop-color="#F677FF"/>
<stop offset="0.988281" stop-color="#F676FF"/>
<stop offset="0.992188" stop-color="#F776FF"/>
<stop offset="0.996094" stop-color="#F876FF"/>
<stop offset="1" stop-color="#F975FF"/>
</linearGradient>
</defs>
</svg>
